<svg height="56" viewBox="0 0 56 56" width="56" xmlns="http://www.w3.org/2000/svg"><path d="m49.2696 4.9961c-.4689 0-.8673.1641-1.2187.5156l-10.0783 10.125-3.5859 3.8906.3749-6.8671v-3.4922c0-.9141-.6796-1.6172-1.5937-1.6641-.9375-.0469-1.7578.7031-1.7578 1.6641v13.5703c0 1.2422.6093 1.875 1.8515 1.875h13.6173c.9608 0 1.7341-.7969 1.6875-1.7578-.047-.9141-.7737-1.5938-1.6875-1.5938h-3.5391l-6.8907.375 3.9376-3.5859 10.0781-10.125c.3984-.375.5626-.7969.5626-1.2891 0-.9141-.7502-1.6406-1.7578-1.6406zm-10.2189 46.0078c4.0782 0 6.7735-1.1015 9.1639-3.7734.1877-.1875.3518-.3985.539-.586 1.4064-1.5703 2.0626-3.1172 2.0626-4.5937 0-1.6875-.984-3.2579-3.0701-4.711l-6.8204-4.7343c-2.1094-1.4531-4.5703-1.6172-6.539.3281l-1.8047 1.8047c-.5391.539-1.0078.5625-1.5469.2343-1.2422-.7968-3.7969-3.0234-5.5313-4.7578-1.8281-1.8046-3.6093-3.8203-4.5234-5.2968-.3281-.5391-.2813-.9844.2578-1.5235l1.7812-1.8047c1.9688-1.9687 1.8048-4.4531.3516-6.539l-4.7578-6.8203c-1.4297-2.086-3-3.0469-4.6875-3.0703-1.4766-.0235-3.0234.6562-4.5937 2.0624-.211.1876-.3985.3516-.6094.5157-2.6484 2.3906-3.75 5.0859-3.75 9.1406 0 6.7031 4.125 14.8594 11.6953 22.4297 7.5234 7.5234 15.7031 11.6953 22.3828 11.6953zm.0235-3.6094c-5.9766.1172-13.6407-4.4765-19.711-10.5234-6.1172-6.0938-10.9219-14.0156-10.8047-19.9922.0469-2.5781.9375-4.8047 2.7891-6.3984.1406-.1407.2813-.2579.4453-.375.6797-.6094 1.4531-.9375 2.1094-.9375.7031 0 1.3125.2578 1.7578.9609l4.5469 6.8203c.4921.7266.539 1.5469-.1876 2.2734l-2.0625 2.0625c-1.6406 1.6173-1.5 3.586-.328 5.1563 1.3359 1.8047 3.6562 4.4297 5.4374 6.211 1.8047 1.8046 4.6407 4.3359 6.4453 5.6952 1.5704 1.1719 3.5626 1.2891 5.1797-.3281l2.0625-2.0625c.7266-.7265 1.5235-.6797 2.25-.2109l6.8204 4.5469c.7031.4687.9843 1.0546.9843 1.7578 0 .6797-.3281 1.4297-.9609 2.1328-.1172.164-.2109.2812-.3516.4453-1.6171 1.8281-3.8437 2.7187-6.4218 2.7656z"/></svg>