<svg fill="none" height="42" viewBox="0 0 24 24" width="42" xmlns="http://www.w3.org/2000/svg"><path d="m2.10863 14.1079 1.65598 1.656c.26397.2774.62091.448 1.00291.4792 1.07727.088 3.14643-1.2358 3.67575-2.0514.41263-.6358.25304-1.5288.25375-2.2452 2.17048-.5989 4.46118-.6012 6.63048-.0066-.0007.7164-.1621 1.6098.2493 2.2448.5269.8132 2.5847 2.1267 3.6599 2.0447.3782-.0288.7333-.1942.999-.4652l1.6593-1.6593c.6316-.6328.5906-1.7258-.1027-2.304-5.4748-5.48341-14.0701-5.52314-19.58192-.0027-.69676.5815-.73734 1.6793-.10175 2.3097z" stroke="#001a72" stroke-linecap="round" stroke-linejoin="round" stroke-width="1.5"/></svg>